# Made in Blockbench 4.10.4
mtllib packboy.mtl

o cuboid
v 0.25 1 0.234375
v 0.25 1 -0.234375
v 0.375 0.5 0.3125
v 0.375 0.5 -0.3125
v -0.25 1 0.234375
v -0.25 1 -0.234375
v -0.375 0.5 0.3125
v -0.375 0.5 -0.3125
vt 1 0.3125
vt 0.5 0.3125
vt 0.5 0
vt 1 0
vt 1 0
vt 1 0.3125
vt 0.5 0.3125
vt 0.5 0
vt 0.5 0
vt 1 0
vt 1 0.3125
vt 0.5 0.3125
vt 0.5 0
vt 0.5 0.3125
vt 0 0.3125
vt 0 0
vt 1 0
vt 1 0.3125
vt 0.5 0.3125
vt 0.5 0
vt 1 0.3125
vt 0.5 0.3125
vt 0.5 0
vt 1 0
vn 0.9701425001453319 0.24253562503633297 0
vn -0.9701425001453319 0.24253562503633297 0
vn 0 1 0
vn 0 -1 0
vn 0 0.1543768802736096 0.9880120337511015
vn 0 0.1543768802736096 -0.9880120337511015
usemtl m_254e07e0-3466-c845-c648-1b5c2260635f
f 2/1/1 1/2/1 3/3/1 4/4/1
f 7/5/2 5/6/2 6/7/2 8/8/2
f 5/9/3 1/10/3 2/11/3 6/12/3
f 4/13/4 3/14/4 7/15/4 8/16/4
f 3/17/5 1/18/5 5/19/5 7/20/5
f 6/21/6 2/22/6 4/23/6 8/24/6
o cuboid
v 0.125 0.53125 0.140625
v 0.125 0.53125 -0.140625
v 0.1875 0.21875 0.1875
v 0.1875 0.21875 -0.1875
v -0.125 0.53125 0.140625
v -0.125 0.53125 -0.140625
v -0.1875 0.21875 0.1875
v -0.1875 0.21875 -0.1875
vt 1 0.3125
vt 0.5 0.3125
vt 0.5 0
vt 1 0
vt 1 0
vt 1 0.3125
vt 0.5 0.3125
vt 0.5 0
vt 0 0
vt 0.5 0
vt 0.5 0.3125
vt 0 0.3125
vt 1 0
vt 1 0.125
vt 0.5 0.125
vt 0.5 0
vt 1 0.125
vt 1 0.3125
vt 0.5 0.3125
vt 0.5 0.125
vt 1 0.3125
vt 0.5 0.3125
vt 0.5 0
vt 1 0
vn 0.9805806756909202 0.19611613513818404 0
vn -0.9805806756909202 0.19611613513818404 0
vn 0 1 0
vn 0 -1 0
vn 0 0.14834045293024462 0.9889363528682975
vn 0 0.14834045293024462 -0.9889363528682975
usemtl m_254e07e0-3466-c845-c648-1b5c2260635f
f 10/25/7 9/26/7 11/27/7 12/28/7
f 15/29/8 13/30/8 14/31/8 16/32/8
f 13/33/9 9/34/9 10/35/9 14/36/9
f 12/37/10 11/38/10 15/39/10 16/40/10
f 11/41/11 9/42/11 13/43/11 15/44/11
f 14/45/12 10/46/12 12/47/12 16/48/12
o cube
v 0.25 0.125 0.125
v 0.25 0.125 -0.125
v 0.25 0 0.125
v 0.25 0 -0.125
v 0.0625 0.125 -0.125
v 0.0625 0.125 0.125
v 0.0625 0 -0.125
v 0.0625 0 0.125
vt 0.75 0.25
vt 0.9375 0.25
vt 0.9375 0.125
vt 0.75 0.125
vt 0.75 0.25
vt 1 0.25
vt 1 0.125
vt 0.75 0.125
vt 0.75 0.25
vt 0.9375 0.25
vt 0.9375 0.125
vt 0.75 0.125
vt 0.75 0.25
vt 1 0.25
vt 1 0.125
vt 0.75 0.125
vt 0.75 0.25
vt 0.9375 0.25
vt 0.9375 0
vt 0.75 0
vt 0.75 0.25
vt 0.9375 0.25
vt 0.9375 0
vt 0.75 0
vn 0 0 -1
vn 1 0 0
vn 0 0 1
vn -1 0 0
vn 0 1 0
vn 0 -1 0
usemtl m_254e07e0-3466-c845-c648-1b5c2260635f
f 20/52/13 23/51/13 21/50/13 18/49/13
f 19/56/14 20/55/14 18/54/14 17/53/14
f 24/60/15 19/59/15 17/58/15 22/57/15
f 23/64/16 24/63/16 22/62/16 21/61/16
f 22/68/17 17/67/17 18/66/17 21/65/17
f 23/72/18 20/71/18 19/70/18 24/69/18
o cube
v -0.0625 0.125 0.125
v -0.0625 0.125 -0.125
v -0.0625 0 0.125
v -0.0625 0 -0.125
v -0.25 0.125 -0.125
v -0.25 0.125 0.125
v -0.25 0 -0.125
v -0.25 0 0.125
vt 0.75 0.25
vt 0.9375 0.25
vt 0.9375 0.125
vt 0.75 0.125
vt 0.75 0.25
vt 1 0.25
vt 1 0.125
vt 0.75 0.125
vt 0.75 0.25
vt 0.9375 0.25
vt 0.9375 0.125
vt 0.75 0.125
vt 0.75 0.25
vt 1 0.25
vt 1 0.125
vt 0.75 0.125
vt 0.75 0.25
vt 0.9375 0.25
vt 0.9375 0
vt 0.75 0
vt 0.75 0.25
vt 0.9375 0.25
vt 0.9375 0
vt 0.75 0
vn 0 0 -1
vn 1 0 0
vn 0 0 1
vn -1 0 0
vn 0 1 0
vn 0 -1 0
usemtl m_254e07e0-3466-c845-c648-1b5c2260635f
f 28/76/19 31/75/19 29/74/19 26/73/19
f 27/80/20 28/79/20 26/78/20 25/77/20
f 32/84/21 27/83/21 25/82/21 30/81/21
f 31/88/22 32/87/22 30/86/22 29/85/22
f 30/92/23 25/91/23 26/90/23 29/89/23
f 31/96/24 28/95/24 27/94/24 32/93/24
o cube
v 0.375 0.3125 0.0625
v 0.375 0.3125 -0.0625
v 0.375 0.1875 0.0625
v 0.375 0.1875 -0.0625
v 0.25 0.3125 -0.0625
v 0.25 0.3125 0.0625
v 0.25 0.1875 -0.0625
v 0.25 0.1875 0.0625
vt 0.5 0.3125
vt 0.625 0.3125
vt 0.625 0.1875
vt 0.5 0.1875
vt 0.5 0.3125
vt 0.625 0.3125
vt 0.625 0.1875
vt 0.5 0.1875
vt 0.5 0.3125
vt 0.625 0.3125
vt 0.625 0.1875
vt 0.5 0.1875
vt 0.5 0.3125
vt 0.625 0.3125
vt 0.625 0.1875
vt 0.5 0.1875
vt 0.5 0.3125
vt 0.625 0.3125
vt 0.625 0.1875
vt 0.5 0.1875
vt 0.5 0.3125
vt 0.625 0.3125
vt 0.625 0.1875
vt 0.5 0.1875
vn 0 0 -1
vn 1 0 0
vn 0 0 1
vn -1 0 0
vn 0 1 0
vn 0 -1 0
usemtl m_254e07e0-3466-c845-c648-1b5c2260635f
f 36/100/25 39/99/25 37/98/25 34/97/25
f 35/104/26 36/103/26 34/102/26 33/101/26
f 40/108/27 35/107/27 33/106/27 38/105/27
f 39/112/28 40/111/28 38/110/28 37/109/28
f 38/116/29 33/115/29 34/114/29 37/113/29
f 39/120/30 36/119/30 35/118/30 40/117/30
o cube
v -0.25 0.3125 0.0625
v -0.25 0.3125 -0.0625
v -0.25 0.1875 0.0625
v -0.25 0.1875 -0.0625
v -0.375 0.3125 -0.0625
v -0.375 0.3125 0.0625
v -0.375 0.1875 -0.0625
v -0.375 0.1875 0.0625
vt 0.5 0.3125
vt 0.625 0.3125
vt 0.625 0.1875
vt 0.5 0.1875
vt 0.5 0.3125
vt 0.625 0.3125
vt 0.625 0.1875
vt 0.5 0.1875
vt 0.5 0.3125
vt 0.625 0.3125
vt 0.625 0.1875
vt 0.5 0.1875
vt 0.5 0.3125
vt 0.625 0.3125
vt 0.625 0.1875
vt 0.5 0.1875
vt 0.5 0.3125
vt 0.625 0.3125
vt 0.625 0.1875
vt 0.5 0.1875
vt 0.5 0.3125
vt 0.625 0.3125
vt 0.625 0.1875
vt 0.5 0.1875
vn 0 0 -1
vn 1 0 0
vn 0 0 1
vn -1 0 0
vn 0 1 0
vn 0 -1 0
usemtl m_254e07e0-3466-c845-c648-1b5c2260635f
f 44/124/31 47/123/31 45/122/31 42/121/31
f 43/128/32 44/127/32 42/126/32 41/125/32
f 48/132/33 43/131/33 41/130/33 46/129/33
f 47/136/34 48/135/34 46/134/34 45/133/34
f 46/140/35 41/139/35 42/138/35 45/137/35
f 47/144/36 44/143/36 43/142/36 48/141/36
o cube
v 0.375 0.9145738752865662 0.2692031954258235
v 0.375 0.9145738752865662 0.2692031954258235
v 0.375 0.42216999878046235 0.35602728425928865
v 0.375 0.42216999878046235 0.35602728425928865
v -0.375 0.9145738752865662 0.2692031954258235
v -0.375 0.9145738752865662 0.2692031954258235
v -0.375 0.42216999878046235 0.35602728425928865
v -0.375 0.42216999878046235 0.35602728425928865
vt 0 0.5
vt 0.75 0.5
vt 0.75 0.4375
vt 0 0.4375
vt 0 1
vt 0 1
vt 0 0.5625
vt 0 0.5625
vt 0 1
vt 0.75 1
vt 0.75 0.5
vt 0 0.5
vt 0 1
vt 0 1
vt 0 0.5625
vt 0 0.5625
vt 0.75 1
vt 0 1
vt 0 1
vt 0.75 1
vt 0.75 1
vt 0 1
vt 0 1
vt 0.75 1
vn 0 -0.17364817766693033 -0.984807753012208
vn 1 0 0
vn 0 0.17364817766693033 0.984807753012208
vn -1 0 0
vn 0 0.984807753012208 -0.17364817766693033
vn 0 -0.984807753012208 0.17364817766693033
usemtl m_254e07e0-3466-c845-c648-1b5c2260635f
f 52/148/37 55/147/37 53/146/37 50/145/37
f 51/152/38 52/151/38 50/150/38 49/149/38
f 56/156/39 51/155/39 49/154/39 54/153/39
f 55/160/40 56/159/40 54/158/40 53/157/40
f 54/164/41 49/163/41 50/162/41 53/161/41
f 55/168/42 52/167/42 51/166/42 56/165/42